<svg xmlns="http://www.w3.org/2000/svg" version="1.1" xmlns:xlink="http://www.w3.org/1999/xlink" width="200" height="200"><svg xmlns="http://www.w3.org/2000/svg" version="1.1" xmlns:xlink="http://www.w3.org/1999/xlink" viewBox="0 0 200 200"><rect width="200" height="200" fill="url('#gradient')"></rect><defs><linearGradient id="SvgjsLinearGradient1001" gradientTransform="rotate(45 0.5 0.5)"><stop offset="0%" stop-color="#cfb04a"></stop><stop offset="100%" stop-color="#b83b25"></stop></linearGradient></defs><g><g fill="#0e2631" transform="matrix(2.288268156424581,0,0,2.288268156424581,8.836532028294151,114.86632435175294)" stroke="#0e4738" stroke-width="0.2"><path d="M5.39-2.34L5.39-2.34Q6.08-2.34 6.46-2.72Q6.85-3.10 6.84-3.77L6.84-3.77L9.92-3.77Q9.92-2.03 8.68-0.92Q7.43 0.20 5.47 0.20L5.47 0.20Q3.16 0.20 1.84-1.25Q0.51-2.70 0.51-5.25L0.51-5.25L0.51-5.39Q0.51-6.99 1.10-8.22Q1.69-9.44 2.80-10.10Q3.92-10.76 5.44-10.76L5.44-10.76Q7.50-10.76 8.71-9.62Q9.92-8.48 9.92-6.52L9.92-6.52L6.84-6.52Q6.84-7.34 6.44-7.78Q6.04-8.22 5.36-8.22L5.36-8.22Q4.08-8.22 3.87-6.59L3.87-6.59Q3.80-6.07 3.80-5.17L3.80-5.17Q3.80-3.57 4.18-2.96Q4.56-2.34 5.39-2.34ZM10.91-4.82L10.90-5.38Q10.90-6.96 11.51-8.20Q12.13-9.43 13.28-10.10Q14.43-10.76 15.99-10.76L15.99-10.76Q18.36-10.76 19.73-9.29Q21.09-7.82 21.09-5.29L21.09-5.29L21.09-5.18Q21.09-2.71 19.72-1.25Q18.35 0.20 16.01 0.20L16.01 0.20Q13.75 0.20 12.38-1.16Q11.02-2.51 10.91-4.82L10.91-4.82ZM14.20-5.77L14.19-5.18Q14.19-3.71 14.65-3.03Q15.11-2.34 16.01-2.34L16.01-2.34Q17.76-2.34 17.80-5.05L17.80-5.05L17.80-5.38Q17.80-8.22 15.99-8.22L15.99-8.22Q14.34-8.22 14.20-5.77L14.20-5.77ZM22.48-10.57L25.57-10.57L25.67-9.33Q26.77-10.76 28.69-10.76L28.69-10.76Q30.34-10.76 31.16-9.78Q31.97-8.79 32.00-6.81L32.00-6.81L32.00 0L28.70 0L28.70-6.67Q28.70-7.47 28.38-7.85Q28.06-8.22 27.21-8.22L27.21-8.22Q26.24-8.22 25.77-7.46L25.77-7.46L25.77 0L22.48 0L22.48-10.57ZM36.40-10.57L38.04-3.92L39.71-10.57L43.17-10.57L39.73 0L36.37 0L32.92-10.57L36.40-10.57ZM49.14 0.20L49.14 0.20Q46.71 0.20 45.21-1.25Q43.70-2.71 43.70-5.03L43.70-5.03L43.70-5.30Q43.70-6.92 44.30-8.16Q44.90-9.40 46.05-10.08Q47.21-10.76 48.79-10.76L48.79-10.76Q51.02-10.76 52.30-9.38Q53.59-8.00 53.59-5.53L53.59-5.53L53.59-4.25L47.05-4.25Q47.23-3.36 47.82-2.85Q48.42-2.34 49.37-2.34L49.37-2.34Q50.93-2.34 51.81-3.44L51.81-3.44L53.31-1.66Q52.70-0.81 51.57-0.31Q50.44 0.20 49.14 0.20ZM48.77-8.22L48.77-8.22Q47.32-8.22 47.05-6.31L47.05-6.31L50.37-6.31L50.37-6.56Q50.39-7.35 49.97-7.79Q49.55-8.22 48.77-8.22ZM55.46-13.19L58.75-13.19L58.75-10.57L60.49-10.57L60.49-8.28L58.75-8.28L58.75-3.45Q58.75-2.85 58.96-2.62Q59.18-2.38 59.81-2.38L59.81-2.38Q60.30-2.38 60.63-2.44L60.63-2.44L60.63-0.09Q59.75 0.20 58.78 0.20L58.78 0.20Q57.08 0.20 56.27-0.61Q55.46-1.41 55.46-3.04L55.46-3.04L55.46-8.28L54.11-8.28L54.11-10.57L55.46-10.57L55.46-13.19ZM61.08-4.82L61.07-5.38Q61.07-6.96 61.69-8.20Q62.30-9.43 63.46-10.10Q64.61-10.76 66.16-10.76L66.16-10.76Q68.54-10.76 69.90-9.29Q71.27-7.82 71.27-5.29L71.27-5.29L71.27-5.18Q71.27-2.71 69.90-1.25Q68.53 0.20 66.18 0.20L66.18 0.20Q63.93 0.20 62.56-1.16Q61.19-2.51 61.08-4.82L61.08-4.82ZM64.38-5.77L64.37-5.18Q64.37-3.71 64.82-3.03Q65.28-2.34 66.18-2.34L66.18-2.34Q67.94-2.34 67.98-5.05L67.98-5.05L67.98-5.38Q67.98-8.22 66.16-8.22L66.16-8.22Q64.51-8.22 64.38-5.77L64.38-5.77ZM79.17-10.64L79.11-7.59L78.03-7.67Q76.47-7.67 76.04-6.69L76.04-6.69L76.04 0L72.74 0L72.74-10.57L75.83-10.57L75.94-9.21Q76.77-10.76 78.25-10.76L78.25-10.76Q78.78-10.76 79.17-10.64L79.17-10.64Z"></path></g></g></svg><style>@media (prefers-color-scheme: light) { :root { filter: none; } }
@media (prefers-color-scheme: dark) { :root { filter: none; } }
</style></svg>